<svg width="30" height="29" viewBox="0 0 30 29" fill="none" xmlns="http://www.w3.org/2000/svg">
<path d="M20.8333 17.3333H19.5167L19.05 16.8833C20.6833 14.9833 21.6667 12.5167 21.6667 9.83333C21.6667 3.85 16.8167 -1 10.8333 -1C4.85 -1 0 3.85 0 9.83333C0 15.8167 4.85 20.6667 10.8333 20.6667C13.5167 20.6667 15.9833 19.6833 17.8833 18.05L18.3333 18.5167V19.8333L26.6667 28.15L29.15 25.6667L20.8333 17.3333ZM10.8333 17.3333C6.68333 17.3333 3.33333 13.9833 3.33333 9.83333C3.33333 5.68333 6.68333 2.33333 10.8333 2.33333C14.9833 2.33333 18.3333 5.68333 18.3333 9.83333C18.3333 13.9833 14.9833 17.3333 10.8333 17.3333Z" fill="#A8A7A7"/>
</svg>
